<?xml version="1.0" encoding="UTF-8"?>
<svg width="38px" height="38px" viewBox="0 0 38 38" version="1.1" xmlns="http://www.w3.org/2000/svg" xmlns:xlink="http://www.w3.org/1999/xlink">
    <title>编组 8</title>
    <g id="页面-1" stroke="none" stroke-width="1" fill="none" fill-rule="evenodd">
        <g id="对话列表" transform="translate(-1087, -845)">
            <g id="编组-14" transform="translate(290, 838)">
                <g id="编组-8" transform="translate(797, 7)">
                    <circle id="椭圆形" fill="#333333" cx="19" cy="19" r="19"></circle>
                    <path d="M26.3670228,10.07888 L8.76679282,16.8845822 C8.31236078,17.060483 8.00942908,17.4937336 8.00021591,17.9809345 C7.99100275,18.4681353 8.27733785,18.9125291 8.72479466,19.1054851 L15.8344836,22.1653512 L18.9063492,29.2890395 C19.0993897,29.7370047 19.5443967,30.0235341 20.0320894,30.0138768 C20.5197822,30.0042195 20.953097,29.7002976 21.128252,29.2450414 L27.9199548,11.6308121 C28.0903754,11.187806 27.9836441,10.6859783 27.6476879,10.350671 C27.3117316,10.0153638 26.8096985,9.90960304 26.3670228,10.0808799 L26.3670228,10.07888 Z M25.4030649,12.5957699 L19.9663028,26.6961529 L17.6704033,21.3733858 L17.5864069,21.2013933 C17.3718226,20.8114741 17.0333045,20.5042742 16.624449,20.3284315 L11.3146814,18.0425316 L25.4040649,12.5957699 L25.4030649,12.5957699 Z" id="形状" fill="#FAFAFA" fill-rule="nonzero"></path>
                </g>
            </g>
        </g>
    </g>
</svg>