<?xml version="1.0" encoding="UTF-8"?>
<svg width="52px" height="61.3449053px" viewBox="0 0 52 61.3449053" version="1.1" xmlns="http://www.w3.org/2000/svg" xmlns:xlink="http://www.w3.org/1999/xlink">
    <title>编组 16</title>
    <g id="页面-1" stroke="none" stroke-width="1" fill="none" fill-rule="evenodd">
        <g id="对话列表" transform="translate(-300, -111)">
            <g id="编组-16" transform="translate(300, 111)">
                <path d="M12.9800712,2.19014393 C13.6191146,3.56057682 13.368583,5.11771907 12.4654184,6.21057791 L15.7713828,11.4341882 C18.9108161,10.0894383 22.3684605,9.34490525 26,9.34490525 C28.8142954,9.34490525 31.5241561,9.79204349 34.0624157,10.6191536 L37.3686824,6.21150631 C36.4648923,5.11860107 36.2140378,3.56096494 36.8532621,2.19014393 C37.7382584,0.292263218 39.994226,-0.528841828 41.8921067,0.356154485 C43.7899874,1.2411508 44.6110925,3.49711837 43.7260962,5.39499909 C43.0870528,6.76543197 41.733174,7.57442537 40.3154526,7.5850373 L38.7097473,12.6578229 C46.6409504,17.1105798 52,25.601906 52,35.3449053 C52,49.7043087 40.3594035,61.3449053 26,61.3449053 C11.6405965,61.3449053 0,49.7043087 0,35.3449053 C0,26.4845404 4.43206018,18.6593387 11.2001501,13.9653305 L9.51908527,7.58504613 C8.10092621,7.57488355 6.7464615,6.76582009 6.10723717,5.39499909 C5.22224086,3.49711837 6.04334591,1.2411508 7.94122662,0.356154485 C9.83910734,-0.528841828 12.0950749,0.292263218 12.9800712,2.19014393 Z" id="路径" fill="#1870F1"></path>
                <path d="M5.83200117,32.4462913 C6.73689331,28.1983048 11.6192209,26.2922741 20.4789841,26.7281989 C23.8991528,23.4330217 25.6092371,21.7854331 25.6092371,21.7854331 C28.9196344,24.9640257 30.574833,26.5533221 30.574833,26.5533221 C39.3616891,26.4374979 44.3716041,28.625866 45.604578,33.1184266 C47.7631158,43.9037654 43.8115756,49.6651968 33.7499575,50.4027208 C23.1755449,51.2966203 15.3250332,50.6246117 10.1984225,48.386695 C5.41523066,45.5002135 3.95975689,40.1867456 5.83200117,32.4462913 Z" id="路径-6" fill="#FFFFFF"></path>
                <ellipse id="椭圆形" fill="#333333" cx="15.1666667" cy="38.0532386" rx="3.25" ry="5.95833333"></ellipse>
                <ellipse id="椭圆形备份-3" fill="#333333" cx="35.75" cy="38.0532386" rx="3.25" ry="5.95833333"></ellipse>
            </g>
        </g>
    </g>
</svg>