<?xml version="1.0" encoding="UTF-8"?>
<svg width="45px" height="45px" viewBox="0 0 45 45" version="1.1" xmlns="http://www.w3.org/2000/svg" xmlns:xlink="http://www.w3.org/1999/xlink">
    <title>编组 15</title>
    <defs>
        <path d="M0,0 L1.79775,0 C2.29437857,0 2.69663571,0.40539 2.69663571,0.905899286 L2.69663571,6.34129286 C2.69663571,6.84180214 2.29437857,7.24719214 1.79775,7.24719214 L0,7.24719214 L0,0 Z" id="path-1"></path>
        <path d="M0.8988765,0 L2.69662929,0 L2.69662929,7.24719 L0.8988765,7.24719 C0.402247286,7.24719 0,6.8418 0,6.34129071 L0,0.905899286 C0,0.40539 0.402247286,0 0.8988765,0 L0.8988765,0 Z" id="path-3"></path>
        <path d="M19.9469057,0.162101345 C20.80947,0.564851345 21.1825629,1.59153063 20.78037,2.45529063 C20.48997,3.07876349 19.8746486,3.44692992 19.2302271,3.45193563 L18.6489836,5.29095277 L21.3593486,5.29095277 C23.6179843,5.29095277 25.4494414,7.12450777 25.4494414,9.38675849 L25.4494414,18.4885463 C25.4494414,20.7503417 23.6179843,22.5843522 21.3593486,22.5843522 L4.09008643,22.5843522 C1.83099429,22.5843522 0,20.7503417 0,18.4885463 L0,9.38675849 C0,7.12450777 1.83099429,5.29095277 4.09008643,5.29095277 L5.71839643,5.29095277 L5.23485857,3.45193563 C4.59044143,3.4473842 3.974655,3.07921777 3.68425929,2.45529063 C3.28206857,1.59153063 3.65517429,0.564851345 4.51772786,0.162101345 C5.38028357,-0.240670083 6.40553143,0.132958488 6.80772429,0.996722774 C7.09812,1.62020206 6.98450571,2.32923063 6.57367929,2.82618706 L8.131095,5.29095277 L16.0454164,5.29095277 L17.8914086,2.82664349 C17.4805821,2.32923063 17.3665136,1.62065635 17.6569093,0.996722774 C18.0591021,0.132958488 19.0843414,-0.240670083 19.9469057,0.162101345 Z" id="path-5"></path>
        <path d="M2.56794429,1.06709433 C6.55034786,-0.360635675 11.8603714,-0.283274246 15.9191593,0.868886468 C17.8610271,1.42047718 19.5505629,2.59873147 19.5505629,4.80097575 L19.5505629,6.05292718 C19.5505629,8.20207361 17.82057,9.94382004 15.6859157,9.94382004 L3.864645,9.94382004 C1.73045143,9.94382004 0,8.20207361 0,6.05292718 L0,4.73277075 C0,3.0871529 1.027995,1.61914147 2.56794429,1.06709433 L2.56794429,1.06709433 Z" id="path-7"></path>
    </defs>
    <g id="页面-1" stroke="none" stroke-width="1" fill="none" fill-rule="evenodd">
        <g id="对话列表" transform="translate(-55, -167)">
            <g id="编组-15" transform="translate(55, 167)">
                <circle id="椭圆形" fill="#E8E8E8" cx="22.5" cy="22.5" r="22.5"></circle>
                <g id="编组备份-2" transform="translate(8, 11)">
                    <g id="编组" transform="translate(27.3034, 9.4382)">
                        <mask id="mask-2" fill="white">
                            <use xlink:href="#path-1"></use>
                        </mask>
                        <g id="Clip-2"></g>
                        <polygon id="Fill-1" fill="#C0C0C0" mask="url(#mask-2)" points="-0.214285714 -0.214285714 2.91092143 -0.214285714 2.91092143 7.46147786 -0.214285714 7.46147786"></polygon>
                    </g>
                    <g id="编组" transform="translate(0, 10.2809)">
                        <mask id="mask-4" fill="white">
                            <use xlink:href="#path-3"></use>
                        </mask>
                        <g id="Clip-4"></g>
                        <polygon id="Fill-3" fill="#C0C0C0" mask="url(#mask-4)" points="-0.214285714 -0.214285714 2.910915 -0.214285714 2.910915 7.46147571 -0.214285714 7.46147571"></polygon>
                    </g>
                    <g id="编组" transform="translate(2.3596, 0)">
                        <mask id="mask-6" fill="white">
                            <use xlink:href="#path-5"></use>
                        </mask>
                        <g id="Clip-6"></g>
                        <polygon id="Fill-5" fill="#C0C0C0" mask="url(#mask-6)" points="-0.214285714 -0.214248655 25.6637271 -0.214248655 25.6637271 22.7985924 -0.214285714 22.7985924"></polygon>
                    </g>
                    <g id="编组" transform="translate(5.3933, 8.7641)">
                        <mask id="mask-8" fill="white">
                            <use xlink:href="#path-7"></use>
                        </mask>
                        <g id="Clip-8"></g>
                        <polygon id="Fill-7" fill="#FFFFFF" mask="url(#mask-8)" points="-0.214285714 -0.574921389 19.7648486 -0.574921389 19.7648486 10.1581058 -0.214285714 10.1581058"></polygon>
                    </g>
                    <g id="编组" transform="translate(10.258, 11.9663)" stroke="#333333" stroke-width="2">
                        <line x1="0.107142857" y1="0" x2="0.107142857" y2="4.38202286" id="Stroke-9"></line>
                        <line x1="9.37680643" y1="0" x2="9.37680643" y2="4.38202286" id="Stroke-10"></line>
                    </g>
                </g>
            </g>
        </g>
    </g>
</svg>