<?xml version="1.0" encoding="UTF-8"?>
<svg width="60px" height="60px" viewBox="0 0 60 60" version="1.1" xmlns="http://www.w3.org/2000/svg" xmlns:xlink="http://www.w3.org/1999/xlink">
    <title>编组 7</title>
    <g id="页面-1" stroke="none" stroke-width="1" fill="none" fill-rule="evenodd">
        <g id="创建" transform="translate(-351.9032, -355.6935)">
            <g id="编组-7" transform="translate(351.9032, 355.6935)">
                <circle id="椭圆形" fill="#333333" cx="30" cy="30" r="30"></circle>
                <path id="路径-4" d="M31.336084,23.1848761 L43.336084,29.9348761 C44.0157357,30.3171801 44.0157357,31.2957231 43.336084,31.6780272 L31.336084,38.4280272 C30.8547261,38.698791 30.245011,38.5280707 29.9742472,38.0467129 C29.7034834,37.565355 29.8742036,36.9556399 30.3555615,36.6848761 L39.027,31.806 L19.0967742,31.8064516 C18.5444894,31.8064516 18.0967742,31.3587364 18.0967742,30.8064516 C18.0967742,30.2541669 18.5444894,29.8064516 19.0967742,29.8064516 L39.027,29.806 L30.3555615,24.9280272 C29.9085864,24.6766036 29.7294569,24.1329211 29.9229361,23.6711328 L29.9742472,23.5661904 C30.245011,23.0848325 30.8547261,22.9141123 31.336084,23.1848761 Z" fill="#FFFFFF" fill-rule="nonzero"></path>
            </g>
        </g>
    </g>
</svg>